<svg width="14.790039" height="17.600098" viewBox="0 0 14.79 17.6001" fill="none" xmlns="http://www.w3.org/2000/svg" xmlns:xlink="http://www.w3.org/1999/xlink">
	<desc>
			Created with Pixso.
	</desc>
	<defs/>
	<path id="Vector" d="M9.37 16.8L14.36 11.98C14.93 11.44 14.93 10.54 14.36 10C13.83 9.48 12.98 9.48 12.45 10L8.79 13.53L8.79 1.4C8.79 0.62 8.16 0 7.39 0C6.62 0 5.99 0.62 5.99 1.4L5.99 13.53L2.33 10C1.8 9.48 0.95 9.48 0.42 10C-0.15 10.54 -0.15 11.44 0.42 11.98L5.41 16.8C5.93 17.31 6.65 17.6 7.39 17.6C8.13 17.6 8.85 17.31 9.37 16.8Z" fill="#E30B49" fill-opacity="1.000000" fill-rule="nonzero"/>
</svg>
