<svg width="11.000000" height="9.243652" viewBox="0 0 11 9.24365" fill="none" xmlns="http://www.w3.org/2000/svg" xmlns:xlink="http://www.w3.org/1999/xlink">
	<desc>
			Created with Pixso.
	</desc>
	<defs/>
	<path id="Vector" d="M10.5 3.38L7.49 0.26C7.15 -0.09 6.59 -0.09 6.25 0.26C5.93 0.59 5.93 1.12 6.25 1.45L8.46 3.74L0.87 3.74C0.39 3.74 0 4.13 0 4.62C0 5.1 0.39 5.49 0.87 5.49L8.46 5.49L6.25 7.78C5.93 8.11 5.93 8.64 6.25 8.98C6.59 9.33 7.15 9.33 7.49 8.98L10.5 5.86C10.82 5.53 11 5.08 11 4.62C11 4.15 10.82 3.71 10.5 3.38Z" fill="#E30B49" fill-opacity="1.000000" fill-rule="nonzero"/>
</svg>
