<svg width="26.667969" height="32.029297" viewBox="0 0 26.668 32.0293" fill="none" xmlns="http://www.w3.org/2000/svg" xmlns:xlink="http://www.w3.org/1999/xlink">
	<desc>
			Created with Pixso.
	</desc>
	<defs/>
	<path id="Vector" d="M13.33 32.02C5.98 32.02 0 26.04 0 18.69C0 14.21 2 11.41 5.02 8.58L8.28 5.52L7.22 9.87C6.86 11.38 6.76 16.01 8.71 18.48C9.52 19.52 10.6 20.02 12 20.02C13.47 20.02 14.64 18.84 14.66 17.34C14.68 15.85 14.05 14.62 13.38 13.31C12.7 11.98 12 10.6 12 8.92C12 5.3 13.88 2.03 13.96 1.89L15.06 0L16.24 1.85C17.37 3.63 18.89 5.3 20.37 6.91C23.47 10.27 26.66 13.76 26.66 18.69C26.66 26.04 20.68 32.02 13.33 32.02L13.33 32.02Z" fill="#E30B49" fill-opacity="1.000000" fill-rule="nonzero"/>
</svg>
