<svg width="195.024414" height="56.002441" viewBox="0 0 195.024 56.0024" fill="none" xmlns="http://www.w3.org/2000/svg" xmlns:xlink="http://www.w3.org/1999/xlink">
	<desc>
			Created with Pixso.
	</desc>
	<defs/>
	<path id="Vector" d="M68.67 22.84C68.16 22.84 67.64 22.8 67.13 22.74C66.62 22.65 66.1 22.55 65.63 22.41C65.16 22.26 64.7 22.1 64.25 21.89C63.8 21.69 63.41 21.46 63.04 21.2C63.06 21.18 63.12 21.11 63.2 20.99C63.29 20.87 63.39 20.7 63.51 20.54C63.64 20.35 63.78 20.17 63.9 19.94C64.03 19.72 64.17 19.53 64.29 19.35C64.42 19.16 64.52 19 64.62 18.88C64.7 18.75 64.77 18.67 64.79 18.67C65.01 18.86 65.3 19.04 65.63 19.23C65.96 19.39 66.31 19.53 66.68 19.66C67.05 19.78 67.44 19.86 67.83 19.94C68.22 20.03 68.61 20.05 69 20.05C69.27 20.05 69.52 20.03 69.74 19.96C69.97 19.92 70.17 19.86 70.32 19.78C70.48 19.7 70.58 19.6 70.67 19.47C70.75 19.35 70.79 19.21 70.79 19.06C70.79 18.88 70.71 18.71 70.54 18.59C70.38 18.47 70.15 18.34 69.87 18.24C69.58 18.12 69.25 18.01 68.9 17.91C68.53 17.81 68.16 17.69 67.79 17.58C67.4 17.46 67.03 17.32 66.68 17.15C66.33 16.99 66 16.78 65.71 16.56C65.42 16.33 65.18 16.04 65.01 15.74C64.83 15.41 64.75 15.04 64.75 14.59C64.75 13.85 64.91 13.23 65.22 12.74C65.55 12.25 65.96 11.84 66.49 11.53C67.01 11.22 67.6 10.97 68.26 10.83C68.92 10.69 69.6 10.6 70.28 10.6C70.73 10.6 71.18 10.64 71.61 10.71C72.04 10.77 72.46 10.87 72.87 10.97C73.28 11.08 73.67 11.22 74.04 11.36C74.41 11.51 74.76 11.71 75.09 11.96C75.11 11.94 75.07 12 74.98 12.12C74.9 12.25 74.8 12.41 74.7 12.6C74.59 12.78 74.47 13.01 74.35 13.23C74.22 13.46 74.1 13.66 74 13.85C73.89 14.03 73.79 14.2 73.71 14.34C73.63 14.48 73.57 14.57 73.57 14.59C73.24 14.34 72.89 14.13 72.5 13.97C72.11 13.81 71.74 13.68 71.37 13.6C71 13.52 70.63 13.44 70.3 13.4C69.97 13.35 69.72 13.31 69.54 13.31C69.31 13.31 69.1 13.33 68.96 13.38C68.82 13.42 68.69 13.46 68.61 13.52C68.53 13.58 68.47 13.64 68.41 13.72C68.36 13.81 68.32 13.91 68.32 14.05C68.32 14.22 68.41 14.36 68.59 14.48C68.78 14.61 69 14.73 69.29 14.83C69.58 14.94 69.91 15.06 70.28 15.16C70.65 15.26 71.02 15.39 71.41 15.53C71.8 15.67 72.17 15.82 72.56 16C72.93 16.19 73.28 16.39 73.57 16.64C73.85 16.89 74.1 17.19 74.26 17.54C74.43 17.89 74.51 18.3 74.51 18.75C74.51 19.39 74.39 19.94 74.12 20.46C73.87 20.97 73.48 21.4 72.97 21.75C72.46 22.1 71.84 22.39 71.12 22.57C70.42 22.76 69.6 22.84 68.67 22.84Z" fill="#FFFFFF" fill-opacity="1.000000" fill-rule="nonzero"/>
	<path id="Vector" d="M96.43 17.83L91.58 17.83L90.73 22.63L87.32 22.63L89.4 10.79L92.81 10.79L92.03 15.18L96.88 15.18L97.66 10.79L101.1 10.79L99.02 22.63L95.59 22.63L96.43 17.83Z" fill="#FFFFFF" fill-opacity="1.000000" fill-rule="nonzero"/>
	<path id="Vector" d="M114.93 10.79L118.37 10.79L116.74 19.94L122.79 19.94L121.04 22.61L112.86 22.61L114.93 10.79Z" fill="#FFFFFF" fill-opacity="1.000000" fill-rule="nonzero"/>
	<path id="Vector" d="M122.34 22.63L129.66 10.79L133.09 10.79L136.28 22.63L132.7 22.63L132.27 20.62L127.09 20.62L125.94 22.63L122.34 22.63ZM130.81 14.05L128.5 18.14L131.69 18.14L130.81 14.05Z" fill="#FFFFFF" fill-opacity="1.000000" fill-rule="nonzero"/>
	<path id="Vector" d="M149.58 15.45C149.44 15.88 149.25 16.29 148.98 16.64C148.74 17.01 148.41 17.32 148.04 17.58C147.67 17.85 147.26 18.08 146.83 18.26L148.74 22.63L145.24 22.63L143.66 18.65C143.62 18.65 143.51 18.65 143.39 18.65C143.27 18.65 143.12 18.65 142.98 18.65C142.84 18.65 142.67 18.65 142.51 18.65C142.32 18.65 142.16 18.65 142.01 18.65C141.85 18.65 141.73 18.65 141.6 18.65C141.48 18.65 141.42 18.65 141.38 18.65L140.68 22.63L137.24 22.63L139.32 10.79L146.04 10.79C146.58 10.79 147.07 10.85 147.54 10.99C148 11.14 148.41 11.34 148.74 11.59C149.07 11.86 149.31 12.18 149.52 12.6C149.7 13.01 149.81 13.48 149.81 13.97C149.78 14.52 149.72 15.02 149.58 15.45ZM142.28 13.48L141.81 16L144.48 16C144.73 16 144.97 15.96 145.18 15.9C145.39 15.84 145.57 15.74 145.74 15.59C145.9 15.47 146.02 15.3 146.11 15.12C146.19 14.94 146.25 14.73 146.25 14.48C146.25 14.32 146.23 14.16 146.17 14.03C146.11 13.91 146.02 13.81 145.9 13.72C145.78 13.64 145.63 13.58 145.49 13.54C145.34 13.5 145.16 13.48 144.97 13.48L142.28 13.48Z" fill="#FFFFFF" fill-opacity="1.000000" fill-rule="nonzero"/>
	<path id="Vector" d="M160.07 16.19C160.31 16.27 160.56 16.39 160.77 16.54C160.97 16.68 161.16 16.86 161.3 17.09C161.44 17.3 161.57 17.54 161.65 17.81C161.73 18.08 161.77 18.34 161.77 18.65C161.77 19.27 161.65 19.8 161.38 20.31C161.12 20.81 160.77 21.24 160.31 21.59C159.86 21.94 159.35 22.2 158.75 22.39C158.15 22.57 157.52 22.65 156.82 22.65L149.77 22.65L151.84 10.81L158.94 10.81C159.47 10.81 159.94 10.85 160.35 10.95C160.77 11.06 161.12 11.2 161.38 11.4C161.67 11.61 161.88 11.86 162.02 12.16C162.16 12.47 162.25 12.82 162.25 13.23C162.25 13.56 162.18 13.89 162.08 14.2C161.98 14.52 161.81 14.81 161.63 15.06C161.44 15.3 161.22 15.53 160.93 15.74C160.66 15.92 160.35 16.06 160.05 16.15L160.07 16.19ZM154.06 17.67L153.65 19.96L156.65 19.96C156.9 19.96 157.11 19.94 157.31 19.88C157.5 19.82 157.68 19.74 157.83 19.62C157.97 19.49 158.09 19.35 158.17 19.16C158.26 18.98 158.3 18.77 158.3 18.55C158.3 18.38 158.26 18.26 158.2 18.14C158.13 18.01 158.05 17.93 157.95 17.85C157.85 17.79 157.72 17.73 157.56 17.71C157.39 17.69 157.23 17.67 157.06 17.67L154.06 17.67ZM154.8 13.46L154.45 15.26L157.33 15.26C157.52 15.26 157.68 15.24 157.85 15.18C158.01 15.14 158.15 15.06 158.26 14.98C158.38 14.89 158.46 14.77 158.52 14.65C158.59 14.5 158.61 14.36 158.61 14.18C158.61 14.05 158.59 13.95 158.52 13.87C158.48 13.79 158.42 13.7 158.34 13.66C158.26 13.6 158.15 13.56 158.03 13.52C157.91 13.48 157.78 13.46 157.66 13.46L154.8 13.46Z" fill="#FFFFFF" fill-opacity="1.000000" fill-rule="nonzero"/>
	<path id="Vector" d="M194.61 11.18C194.38 11.4 194.12 11.65 193.81 11.96C193.5 12.27 193.17 12.6 192.78 12.94C192.39 13.29 192.04 13.62 191.73 13.93C191.4 14.24 191.13 14.5 190.91 14.71C190.68 14.91 190.56 15.04 190.54 15.08C190.56 15.1 190.6 15.24 190.7 15.47C190.78 15.72 190.91 16 191.03 16.35C191.15 16.7 191.3 17.09 191.46 17.54C191.63 17.99 191.79 18.43 191.96 18.88C192.12 19.33 192.29 19.76 192.45 20.21C192.61 20.64 192.76 21.03 192.88 21.38C193 21.73 193.11 22.02 193.21 22.26C193.29 22.51 193.35 22.63 193.37 22.67L189.92 22.67C189.9 22.65 189.86 22.55 189.82 22.41C189.78 22.24 189.69 22.06 189.61 21.81C189.53 21.57 189.43 21.3 189.32 20.99C189.22 20.68 189.12 20.38 189 20.07C188.87 19.76 188.77 19.45 188.67 19.14C188.56 18.84 188.46 18.57 188.38 18.32C188.3 18.08 188.21 17.87 188.17 17.73C188.11 17.56 188.09 17.48 188.07 17.46C188.05 17.48 187.99 17.54 187.84 17.69C187.7 17.83 187.56 17.99 187.35 18.18C187.17 18.36 186.94 18.57 186.71 18.79C186.49 19.02 186.28 19.23 186.08 19.41C185.89 19.6 185.73 19.76 185.56 19.88C185.42 20.03 185.31 20.09 185.29 20.11L184.86 22.69L181.45 22.69L183.53 10.85L186.94 10.85L186.06 15.88L191.11 10.85L195.02 10.85C194.98 10.83 194.83 10.95 194.61 11.18Z" fill="#FFFFFF" fill-opacity="1.000000" fill-rule="nonzero"/>
	<path id="Vector" d="M108.13 23.04L105.02 23.04C103.85 23.04 102.76 22.53 102.02 21.65C101.28 20.77 100.95 19.6 101.16 18.45L101.98 13.77C102.31 11.88 103.93 10.52 105.85 10.52L108.95 10.52C110.12 10.52 111.21 11.03 111.95 11.92C112.69 12.8 113.02 13.97 112.82 15.12L112 19.8C111.67 21.67 110.04 23.04 108.13 23.04ZM105.85 13.74C105.52 13.74 105.23 13.99 105.17 14.32L104.35 19C104.31 19.27 104.43 19.47 104.49 19.55C104.57 19.64 104.74 19.8 105 19.8L108.11 19.8C108.44 19.8 108.73 19.55 108.79 19.23L109.61 14.55C109.65 14.28 109.53 14.07 109.47 13.99C109.4 13.91 109.22 13.74 108.95 13.74L105.85 13.74Z" fill="#FFFFFF" fill-opacity="1.000000" fill-rule="nonzero"/>
	<path id="Vector" d="M83.39 18.4L83.25 19.23C83.19 19.55 82.9 19.8 82.57 19.8L79.47 19.8C79.2 19.8 79.01 19.66 78.95 19.55C78.87 19.47 78.75 19.27 78.81 19L79.63 14.32C79.69 13.99 79.98 13.74 80.31 13.74L83.41 13.74C83.68 13.74 83.87 13.89 83.93 13.99C84.01 14.07 84.13 14.28 84.07 14.55L83.93 15.39L87.22 15.39L87.26 15.1C87.47 13.95 87.14 12.78 86.4 11.9C85.66 11.01 84.55 10.5 83.39 10.5L80.29 10.5C78.38 10.5 76.75 11.88 76.42 13.74L75.6 18.42C75.4 19.57 75.73 20.74 76.47 21.63C77.21 22.51 78.32 23.02 79.47 23.02L82.57 23.02C84.48 23.02 86.11 21.65 86.44 19.78L86.68 18.4L83.39 18.4Z" fill="#FFFFFF" fill-opacity="1.000000" fill-rule="nonzero"/>
	<path id="Vector" d="M180.69 12.02C179.93 11.12 178.84 10.62 177.67 10.62L174.85 10.62C174.31 10.62 173.8 10.73 173.35 10.91C173.92 11.38 174.81 12.41 174.91 13.81L177.69 13.81C178 13.81 178.18 13.97 178.26 14.07C178.35 14.18 178.49 14.38 178.43 14.69L177.65 19.18C177.58 19.55 177.28 19.8 176.91 19.8L174.09 19.8C173.78 19.8 173.6 19.64 173.51 19.53C173.43 19.43 173.29 19.23 173.35 18.92L173.84 16.04L173.99 15.22C174.19 14.07 173.86 12.9 173.12 12C172.36 11.1 171.27 10.6 170.1 10.6L167.28 10.6C165.35 10.6 163.71 11.98 163.38 13.89L162.6 18.38C162.39 19.53 162.72 20.7 163.46 21.61C164.22 22.51 165.31 23 166.48 23L169.3 23C169.83 23 170.35 22.9 170.82 22.69C169.59 21.73 169.3 20.35 169.24 19.8L166.48 19.8C166.17 19.8 165.99 19.64 165.91 19.53C165.82 19.43 165.68 19.23 165.74 18.92L166.52 14.42C166.58 14.05 166.89 13.81 167.26 13.81L170.08 13.81C170.39 13.81 170.57 13.97 170.66 14.07C170.74 14.18 170.88 14.38 170.82 14.69L170.59 16.04L170.18 18.36C169.98 19.51 170.31 20.68 171.05 21.59C171.81 22.49 172.9 22.98 174.07 22.98L176.89 22.98C178.82 22.98 180.46 21.61 180.79 19.7L181.57 15.2C181.76 14.07 181.45 12.9 180.69 12.02Z" fill="#FFFFFF" fill-opacity="1.000000" fill-rule="nonzero"/>
	<path id="Vector" d="M27.08 3.21C20.66 7.98 18.28 13.09 19.68 16.6C25.41 31.05 45.73 42.07 30.02 55.54C54.3 54.37 56.93 42.22 54.28 38.23C51.18 33.62 32.63 19.66 28.7 13.81C25.93 9.66 27.08 3.21 27.08 3.21Z" fill="#FFFFFF" fill-opacity="1.000000" fill-rule="nonzero"/>
	<path id="Vector" d="M26.91 55.54C30.86 53.03 35.1 46.4 33.1 42.11C25.45 43.98 12.64 44.78 11.66 42.81C10.96 41.44 18.26 35.03 23.97 31.15C24.32 30.93 24.4 30.43 24.14 30.11C23.93 29.82 23.54 29.72 23.23 29.88C11.6 35.3 -2.76 44.15 0.45 49.71C4.36 56.46 22.86 56.52 26.91 55.54Z" fill="#E80048" fill-opacity="1.000000" fill-rule="nonzero"/>
	<path id="Vector" d="M29.5 2.21C28.68 4.86 29.46 10.83 30.8 12.25C32.69 10.87 40.05 7.67 41.41 8.63C42.19 9.19 39.68 13.52 37.56 16.78C37.19 17.38 37.91 18.03 38.47 17.6C43.94 13.23 51.34 3.99 48.24 1.63C45.69 -0.48 35.26 -0.81 29.5 2.21Z" fill="#FFFFFF" fill-opacity="1.000000" fill-rule="nonzero"/>
	<path id="Vector" d="M66.9 39.63L65.94 45.19L59.83 45.19L63 27.11L74.88 27.11C75.75 27.11 76.51 27.21 77.18 27.44C77.86 27.64 78.46 27.97 78.93 28.4C79.41 28.83 79.8 29.35 80.04 29.98C80.31 30.62 80.43 31.36 80.43 32.2C80.43 33.45 80.21 34.56 79.78 35.48C79.34 36.43 78.75 37.19 78.01 37.8C77.27 38.42 76.4 38.87 75.44 39.18C74.47 39.49 73.46 39.63 72.39 39.63L66.9 39.63ZM68.3 31.67L67.73 35.11L71.84 35.11C72.27 35.11 72.64 35.05 72.93 34.93C73.24 34.81 73.48 34.64 73.67 34.44C73.85 34.23 74 34.01 74.08 33.74C74.16 33.47 74.2 33.21 74.2 32.94C74.2 32.69 74.16 32.49 74.06 32.32C73.96 32.16 73.81 32.03 73.65 31.93C73.48 31.83 73.28 31.77 73.05 31.73C72.83 31.69 72.56 31.67 72.29 31.67L68.3 31.67Z" fill="#E80048" fill-opacity="1.000000" fill-rule="nonzero"/>
	<path id="Vector" d="M101.04 34.5C100.81 35.18 100.5 35.77 100.11 36.28C99.72 36.8 99.25 37.23 98.71 37.6C98.18 37.97 97.58 38.28 96.96 38.52L100.01 45.19L93.86 45.19L91.41 39.16C91.31 39.16 91.17 39.16 90.96 39.16C90.75 39.16 90.53 39.16 90.28 39.16C90.04 39.16 89.77 39.16 89.48 39.16C89.19 39.16 88.93 39.16 88.68 39.16C88.43 39.16 88.21 39.16 88.02 39.16C87.84 39.16 87.69 39.16 87.61 39.16L86.56 45.19L80.47 45.19L83.64 27.11L95.55 27.11C96.41 27.11 97.19 27.21 97.89 27.44C98.61 27.64 99.23 27.97 99.74 28.38C100.25 28.79 100.67 29.33 100.95 29.96C101.24 30.6 101.39 31.34 101.39 32.2C101.37 33.06 101.26 33.84 101.04 34.5ZM88.9 31.67L88.37 34.7L92.96 34.7C93.26 34.7 93.55 34.66 93.82 34.6C94.09 34.52 94.31 34.42 94.5 34.27C94.68 34.13 94.85 33.94 94.95 33.72C95.05 33.49 95.11 33.25 95.11 32.94C95.11 32.73 95.07 32.55 94.99 32.4C94.91 32.24 94.81 32.12 94.66 32.01C94.52 31.91 94.35 31.83 94.17 31.77C93.98 31.71 93.76 31.69 93.51 31.69L88.9 31.69L88.9 31.67Z" fill="#E80048" fill-opacity="1.000000" fill-rule="nonzero"/>
	<path id="Vector" d="M105.13 27.11L120.86 27.11L120.06 31.67L110.45 31.67L110.12 33.62L115.96 33.62L115.16 38.15L109.32 38.15L108.87 40.68L119.36 40.68L118.57 45.21L101.96 45.21L105.13 27.11Z" fill="#E80048" fill-opacity="1.000000" fill-rule="nonzero"/>
	<path id="Vector" d="M132.97 36.78C133.01 36.72 133.11 36.55 133.28 36.26C133.44 35.98 133.67 35.61 133.93 35.18C134.2 34.72 134.51 34.23 134.82 33.66C135.15 33.08 135.48 32.53 135.83 31.95C136.17 31.38 136.5 30.8 136.83 30.25C137.16 29.67 137.45 29.18 137.72 28.73C137.98 28.28 138.21 27.93 138.37 27.64C138.54 27.35 138.64 27.19 138.68 27.13L145.37 27.13L142.2 45.21L136.07 45.21L137.39 37.66L137.28 37.66C137.28 37.68 137.22 37.8 137.1 38.01C136.98 38.21 136.79 38.5 136.59 38.85C136.38 39.2 136.13 39.61 135.87 40.06C135.6 40.51 135.33 40.96 135.06 41.44C134.78 41.91 134.51 42.36 134.26 42.81C134 43.26 133.77 43.67 133.54 44.02C133.34 44.37 133.15 44.66 133.03 44.86C132.91 45.07 132.84 45.19 132.84 45.21L129.99 45.21C130.01 45.19 129.99 45.07 129.92 44.86C129.86 44.66 129.78 44.37 129.68 44.02C129.57 43.67 129.47 43.26 129.35 42.81C129.25 42.36 129.12 41.91 128.98 41.44C128.85 40.96 128.73 40.51 128.61 40.06C128.5 39.61 128.38 39.2 128.28 38.85C128.18 38.5 128.09 38.21 128.03 38.01C127.97 37.8 127.95 37.68 127.95 37.66L127.89 37.66L126.53 45.21L120.4 45.21L123.57 27.13L130.25 27.13L132.82 36.8L132.97 36.8L132.97 36.78Z" fill="#E80048" fill-opacity="1.000000" fill-rule="nonzero"/>
	<path id="Vector" d="M148.41 27.11L154.53 27.11L151.37 45.19L145.24 45.19L148.41 27.11Z" fill="#E80048" fill-opacity="1.000000" fill-rule="nonzero"/>
	<path id="Vector" d="M157.6 27.11L173.33 27.11L172.53 31.67L162.92 31.67L162.6 33.62L168.43 33.62L167.63 38.15L161.79 38.15L161.34 40.68L171.83 40.68L171.05 45.21L154.43 45.21L157.6 27.11Z" fill="#E80048" fill-opacity="1.000000" fill-rule="nonzero"/>
	<path id="Vector" d="M193.44 34.5C193.21 35.18 192.9 35.77 192.51 36.28C192.12 36.8 191.65 37.23 191.11 37.6C190.58 37.97 189.98 38.28 189.37 38.52L192.41 45.19L186.26 45.19L183.81 39.16C183.71 39.16 183.57 39.16 183.36 39.16C183.16 39.16 182.93 39.16 182.68 39.16C182.44 39.16 182.17 39.16 181.88 39.16C181.59 39.16 181.33 39.16 181.08 39.16C180.83 39.16 180.61 39.16 180.42 39.16C180.24 39.16 180.09 39.16 180.01 39.16L178.96 45.19L172.88 45.19L176.04 27.11L187.93 27.11C188.79 27.11 189.57 27.21 190.27 27.44C190.99 27.64 191.61 27.97 192.12 28.38C192.64 28.79 193.05 29.33 193.33 29.96C193.62 30.6 193.77 31.34 193.77 32.2C193.79 33.06 193.66 33.84 193.44 34.5ZM181.31 31.67L180.77 34.7L185.36 34.7C185.66 34.7 185.95 34.66 186.22 34.6C186.49 34.52 186.71 34.42 186.9 34.27C187.08 34.13 187.25 33.94 187.35 33.72C187.45 33.49 187.52 33.25 187.52 32.94C187.52 32.73 187.47 32.55 187.39 32.4C187.31 32.24 187.21 32.12 187.06 32.01C186.92 31.91 186.75 31.83 186.57 31.77C186.38 31.71 186.16 31.69 185.91 31.69L181.31 31.69L181.31 31.67Z" fill="#E80048" fill-opacity="1.000000" fill-rule="nonzero"/>
	<path id="Vector" d="M66.9 39.63L65.94 45.19L59.83 45.19L63 27.11L74.88 27.11C75.75 27.11 76.51 27.21 77.18 27.44C77.86 27.64 78.46 27.97 78.93 28.4C79.41 28.83 79.8 29.35 80.04 29.98C80.31 30.62 80.43 31.36 80.43 32.2C80.43 33.45 80.21 34.56 79.78 35.48C79.34 36.43 78.75 37.19 78.01 37.8C77.27 38.42 76.4 38.87 75.44 39.18C74.47 39.49 73.46 39.63 72.39 39.63L66.9 39.63ZM68.3 31.67L67.73 35.11L71.84 35.11C72.27 35.11 72.64 35.05 72.93 34.93C73.24 34.81 73.48 34.64 73.67 34.44C73.85 34.23 74 34.01 74.08 33.74C74.16 33.47 74.2 33.21 74.2 32.94C74.2 32.69 74.16 32.49 74.06 32.32C73.96 32.16 73.81 32.03 73.65 31.93C73.48 31.83 73.28 31.77 73.05 31.73C72.83 31.69 72.56 31.67 72.29 31.67L68.3 31.67Z" fill="#E40B49" fill-opacity="1.000000" fill-rule="nonzero"/>
	<path id="Vector" d="M101.04 34.5C100.81 35.18 100.5 35.77 100.11 36.28C99.72 36.8 99.25 37.23 98.71 37.6C98.18 37.97 97.58 38.28 96.96 38.52L100.01 45.19L93.86 45.19L91.41 39.16C91.31 39.16 91.17 39.16 90.96 39.16C90.75 39.16 90.53 39.16 90.28 39.16C90.04 39.16 89.77 39.16 89.48 39.16C89.19 39.16 88.93 39.16 88.68 39.16C88.43 39.16 88.21 39.16 88.02 39.16C87.84 39.16 87.69 39.16 87.61 39.16L86.56 45.19L80.47 45.19L83.64 27.11L95.55 27.11C96.41 27.11 97.19 27.21 97.89 27.44C98.61 27.64 99.23 27.97 99.74 28.38C100.25 28.79 100.67 29.33 100.95 29.96C101.24 30.6 101.39 31.34 101.39 32.2C101.37 33.06 101.26 33.84 101.04 34.5ZM88.9 31.67L88.37 34.7L92.96 34.7C93.26 34.7 93.55 34.66 93.82 34.6C94.09 34.52 94.31 34.42 94.5 34.27C94.68 34.13 94.85 33.94 94.95 33.72C95.05 33.49 95.11 33.25 95.11 32.94C95.11 32.73 95.07 32.55 94.99 32.4C94.91 32.24 94.81 32.12 94.66 32.01C94.52 31.91 94.35 31.83 94.17 31.77C93.98 31.71 93.76 31.69 93.51 31.69L88.9 31.69L88.9 31.67Z" fill="#E40B49" fill-opacity="1.000000" fill-rule="nonzero"/>
	<path id="Vector" d="M105.13 27.11L120.86 27.11L120.06 31.67L110.45 31.67L110.12 33.62L115.96 33.62L115.16 38.15L109.32 38.15L108.87 40.68L119.36 40.68L118.57 45.21L101.96 45.21L105.13 27.11Z" fill="#E40B49" fill-opacity="1.000000" fill-rule="nonzero"/>
	<path id="Vector" d="M132.97 36.78C133.01 36.72 133.11 36.55 133.28 36.26C133.44 35.98 133.67 35.61 133.93 35.18C134.2 34.72 134.51 34.23 134.82 33.66C135.15 33.08 135.48 32.53 135.83 31.95C136.17 31.38 136.5 30.8 136.83 30.25C137.16 29.67 137.45 29.18 137.72 28.73C137.98 28.28 138.21 27.93 138.37 27.64C138.54 27.35 138.64 27.19 138.68 27.13L145.37 27.13L142.2 45.21L136.07 45.21L137.39 37.66L137.28 37.66C137.28 37.68 137.22 37.8 137.1 38.01C136.98 38.21 136.79 38.5 136.59 38.85C136.38 39.2 136.13 39.61 135.87 40.06C135.6 40.51 135.33 40.96 135.06 41.44C134.78 41.91 134.51 42.36 134.26 42.81C134 43.26 133.77 43.67 133.54 44.02C133.34 44.37 133.15 44.66 133.03 44.86C132.91 45.07 132.84 45.19 132.84 45.21L129.99 45.21C130.01 45.19 129.99 45.07 129.92 44.86C129.86 44.66 129.78 44.37 129.68 44.02C129.57 43.67 129.47 43.26 129.35 42.81C129.25 42.36 129.12 41.91 128.98 41.44C128.85 40.96 128.73 40.51 128.61 40.06C128.5 39.61 128.38 39.2 128.28 38.85C128.18 38.5 128.09 38.21 128.03 38.01C127.97 37.8 127.95 37.68 127.95 37.66L127.89 37.66L126.53 45.21L120.4 45.21L123.57 27.13L130.25 27.13L132.82 36.8L132.97 36.8L132.97 36.78Z" fill="#E40B49" fill-opacity="1.000000" fill-rule="nonzero"/>
	<path id="Vector" d="M148.41 27.11L154.53 27.11L151.37 45.19L145.24 45.19L148.41 27.11Z" fill="#E40B49" fill-opacity="1.000000" fill-rule="nonzero"/>
	<path id="Vector" d="M157.6 27.11L173.33 27.11L172.53 31.67L162.92 31.67L162.6 33.62L168.43 33.62L167.63 38.15L161.79 38.15L161.34 40.68L171.83 40.68L171.05 45.21L154.43 45.21L157.6 27.11Z" fill="#E40B49" fill-opacity="1.000000" fill-rule="nonzero"/>
	<path id="Vector" d="M193.44 34.5C193.21 35.18 192.9 35.77 192.51 36.28C192.12 36.8 191.65 37.23 191.11 37.6C190.58 37.97 189.98 38.28 189.37 38.52L192.41 45.19L186.26 45.19L183.81 39.16C183.71 39.16 183.57 39.16 183.36 39.16C183.16 39.16 182.93 39.16 182.68 39.16C182.44 39.16 182.17 39.16 181.88 39.16C181.59 39.16 181.33 39.16 181.08 39.16C180.83 39.16 180.61 39.16 180.42 39.16C180.24 39.16 180.09 39.16 180.01 39.16L178.96 45.19L172.88 45.19L176.04 27.11L187.93 27.11C188.79 27.11 189.57 27.21 190.27 27.44C190.99 27.64 191.61 27.97 192.12 28.38C192.64 28.79 193.05 29.33 193.33 29.96C193.62 30.6 193.77 31.34 193.77 32.2C193.79 33.06 193.66 33.84 193.44 34.5ZM181.31 31.67L180.77 34.7L185.36 34.7C185.66 34.7 185.95 34.66 186.22 34.6C186.49 34.52 186.71 34.42 186.9 34.27C187.08 34.13 187.25 33.94 187.35 33.72C187.45 33.49 187.52 33.25 187.52 32.94C187.52 32.73 187.47 32.55 187.39 32.4C187.31 32.24 187.21 32.12 187.06 32.01C186.92 31.91 186.75 31.83 186.57 31.77C186.38 31.71 186.16 31.69 185.91 31.69L181.31 31.69L181.31 31.67Z" fill="#E40B49" fill-opacity="1.000000" fill-rule="nonzero"/>
</svg>
