<svg width="24.000000" height="24.000000" viewBox="0 0 24 24" fill="none" xmlns="http://www.w3.org/2000/svg" xmlns:xlink="http://www.w3.org/1999/xlink">
	<desc>
			Created with Pixso.
	</desc>
	<defs/>
	<path id="Vector" d="M15.7 9.7L13.41 12L15.7 14.29C16.09 14.68 16.09 15.31 15.7 15.7C15.51 15.9 15.25 16 15 16C14.74 16 14.48 15.9 14.29 15.7L12 13.41L9.7 15.7C9.51 15.9 9.25 16 9 16C8.74 16 8.48 15.9 8.29 15.7C7.9 15.31 7.9 14.68 8.29 14.29L10.58 12L8.29 9.7C7.9 9.31 7.9 8.68 8.29 8.29C8.68 7.9 9.31 7.9 9.7 8.29L12 10.58L14.29 8.29C14.68 7.9 15.31 7.9 15.7 8.29C16.09 8.68 16.09 9.31 15.7 9.7ZM24 12C24 18.61 18.61 24 12 24C5.38 24 0 18.61 0 12C0 5.38 5.38 0 12 0C18.61 0 24 5.38 24 12ZM22 12C22 6.48 17.51 2 12 2C6.48 2 2 6.48 2 12C2 17.51 6.48 22 12 22C17.51 22 22 17.51 22 12Z" fill="#07293E" fill-opacity="1.000000" fill-rule="nonzero"/>
</svg>
