<svg width="225.000000" height="227.513672" viewBox="0 0 225 227.514" fill="none" xmlns="http://www.w3.org/2000/svg" xmlns:xlink="http://www.w3.org/1999/xlink">
	<desc>
			Created with Pixso.
	</desc>
	<defs/>
	<path id="Vector" d="M110.61 13.1C84.44 32.43 74.68 53.25 80.35 67.46C103.8 126.18 186.76 170.96 122.56 225.63C221.75 220.86 232.47 171.53 221.59 155.36C208.94 136.58 133.18 79.93 117.18 56.08C105.91 39.27 110.61 13.1 110.61 13.1Z" fill="#FFFFFF" fill-opacity="1.000000" fill-rule="nonzero"/>
	<path id="Vector" d="M109.92 225.63C126.04 215.43 143.31 188.57 135.17 171.06C103.92 178.62 51.66 181.89 47.57 173.87C44.73 168.32 74.54 142.29 97.88 126.49C99.3 125.53 99.61 123.6 98.59 122.23C97.72 121.08 96.19 120.69 94.87 121.29C47.37 143.44 -11.23 179.41 1.85 201.94C17.81 229.41 93.35 229.66 109.88 225.63L109.92 225.63Z" fill="#E30B49" fill-opacity="1.000000" fill-rule="nonzero"/>
	<path id="Vector" d="M120.53 9.01C117.16 19.76 120.33 44.02 125.78 49.79C133.5 44.2 163.52 31.24 169.07 35.09C172.28 37.32 161.99 54.95 153.41 68.16C151.85 70.55 154.88 73.26 157.11 71.49C179.44 53.72 209.69 16.21 196.97 6.57C186.55 -1.91 143.96 -3.28 120.51 9.01L120.53 9.01Z" fill="#FFFFFF" fill-opacity="1.000000" fill-rule="nonzero"/>
</svg>
