<svg width="11.000000" height="9.243652" viewBox="0 0 11 9.24365" fill="none" xmlns="http://www.w3.org/2000/svg" xmlns:xlink="http://www.w3.org/1999/xlink">
	<desc>
			Created with Pixso.
	</desc>
	<defs/>
	<path id="Vector" d="M0.49 3.38L3.5 0.26C3.84 -0.09 4.4 -0.09 4.74 0.26C5.06 0.59 5.06 1.12 4.74 1.45L2.53 3.74L10.12 3.74C10.6 3.74 11 4.13 11 4.62C11 5.1 10.6 5.49 10.12 5.49L2.53 5.49L4.74 7.78C5.06 8.11 5.06 8.64 4.74 8.98C4.4 9.33 3.84 9.33 3.5 8.98L0.49 5.86C0.17 5.53 0 5.08 0 4.62C0 4.15 0.17 3.71 0.49 3.38Z" fill="#E30B49" fill-opacity="1.000000" fill-rule="nonzero"/>
</svg>
